<?xml version="1.0" encoding="utf-8"?>
<!-- Generator: Adobe Illustrator 21.0.0, SVG Export Plug-In . SVG Version: 6.00 Build 0)  -->
<svg version="1.1" id="Layer_1" xmlns="http://www.w3.org/2000/svg" xmlns:xlink="http://www.w3.org/1999/xlink" x="0px" y="0px"
	 viewBox="0 0 43 43" style="enable-background:new 0 0 43 43;" xml:space="preserve">
<style type="text/css">
	.st0{fill:#EE9B18;stroke:#FFFFFF;stroke-width:2;stroke-miterlimit:10;}
</style>
<title>Asset 4</title>
<circle class="st0" cx="21.5" cy="21.5" r="20.1"/>
<path d="M13,32.6v-23h8.1c8.2,0,12.3,3.7,12.3,11.2c0,3.6-1.1,6.4-3.3,8.6c-2.2,2.1-5.2,3.2-8.9,3.2H13z M18.2,13.8v14.6h2.6
	c2.2,0,4-0.7,5.3-2c1.3-1.3,1.9-3.2,1.9-5.5c0-2.2-0.6-3.9-1.9-5.2s-3-1.9-5.3-1.9C20.8,13.8,18.2,13.8,18.2,13.8z"/>
</svg>
