<svg xmlns="http://www.w3.org/2000/svg" viewBox="0 0 39.43 39.43"><defs><style>.cls-1{stroke:#fff;stroke-miterlimit:10;stroke-width:2px;}.cls-2{fill:#fad413;}</style></defs><title>Asset 15</title><g id="Layer_2" data-name="Layer 2"><g id="Layer_3" data-name="Layer 3"><circle class="cls-1" cx="19.71" cy="19.71" r="18.71"/><path class="cls-2" d="M14.33,9.47a23.25,23.25,0,0,1,4.39-.39c2.4,0,3.94.41,5.1,1.35a3.9,3.9,0,0,1,1.54,3.28,4.41,4.41,0,0,1-3.15,4.08v.06a4.79,4.79,0,0,1,3.83,4.66,5,5,0,0,1-1.57,3.72C23.19,27.43,21.09,28,18.06,28a28.06,28.06,0,0,1-3.72-.22Zm2.4,7.61h2.18c2.54,0,4-1.32,4-3.12,0-2.18-1.66-3-4.08-3a10.26,10.26,0,0,0-2.12.17Zm0,8.91a12.91,12.91,0,0,0,2,.11c2.48,0,4.77-.91,4.77-3.61,0-2.54-2.18-3.59-4.8-3.59h-2Z"/></g></g></svg>