<?xml version="1.0" encoding="utf-8"?>
<!-- Generator: Adobe Illustrator 21.0.0, SVG Export Plug-In . SVG Version: 6.00 Build 0)  -->
<svg version="1.1" id="Layer_1" xmlns="http://www.w3.org/2000/svg" xmlns:xlink="http://www.w3.org/1999/xlink" x="0px" y="0px"
	 viewBox="0 0 43 43" style="enable-background:new 0 0 43 43;" xml:space="preserve">
<style type="text/css">
	.st0{fill:#EE9B18;stroke:#FFFFFF;stroke-width:2;stroke-miterlimit:10;}
</style>
<title>Asset 2</title>
<circle class="st0" cx="21.5" cy="21.5" r="20.1"/>
<path d="M14.6,33.6v-23H23c2.6,0,4.5,0.5,5.9,1.4s2.1,2.3,2.1,4c0,1.2-0.4,2.3-1.3,3.3c-0.8,0.9-1.9,1.6-3.2,1.9v0.1
	c1.6,0.2,2.9,0.8,3.9,1.8s1.5,2.2,1.5,3.7c0,2.1-0.8,3.8-2.3,5c-1.5,1.2-3.6,1.9-6.2,1.9L14.6,33.6L14.6,33.6z M19.8,14.4v5.5h2.3
	c1.1,0,1.9-0.3,2.5-0.8s0.9-1.2,0.9-2.1c0-1.7-1.3-2.5-3.8-2.5h-1.9V14.4z M19.8,23.7v6.1h2.8c1.2,0,2.1-0.3,2.8-0.8s1-1.3,1-2.3
	c0-0.9-0.3-1.6-1-2.2c-0.7-0.5-1.6-0.8-2.8-0.8C22.6,23.7,19.8,23.7,19.8,23.7z"/>
</svg>
