<?xml version="1.0" encoding="utf-8"?>
<!-- Generator: Adobe Illustrator 21.0.0, SVG Export Plug-In . SVG Version: 6.00 Build 0)  -->
<svg version="1.1" id="Layer_1" xmlns="http://www.w3.org/2000/svg" xmlns:xlink="http://www.w3.org/1999/xlink" x="0px" y="0px"
	 viewBox="0 0 43 43" style="enable-background:new 0 0 43 43;" xml:space="preserve">
<style type="text/css">
	.st0{fill:#EE9B18;stroke:#FFFFFF;stroke-width:2;stroke-miterlimit:10;}
	.st1{enable-background:new    ;}
</style>
<title>Asset 3</title>
<circle class="st0" cx="21.5" cy="21.5" r="20.1"/>
<g class="st1">
	<path d="M29.4,32.8c-1.7,0.8-3.9,1.2-6.6,1.2c-3.5,0-6.3-1-8.3-3.1s-3-4.8-3-8.3c0-3.7,1.1-6.7,3.4-9s5.2-3.4,8.8-3.4
		c2.2,0,4.1,0.3,5.7,0.9v5c-1.5-0.9-3.3-1.4-5.3-1.4c-2.2,0-3.9,0.7-5.2,2c-1.3,1.4-2,3.2-2,5.5c0,2.2,0.6,4,1.9,5.3
		c1.3,1.3,2.9,2,5.1,2c2,0,3.9-0.5,5.5-1.5C29.4,28,29.4,32.8,29.4,32.8z"/>
</g>
</svg>
