<svg xmlns="http://www.w3.org/2000/svg" viewBox="0 0 180.34 555.95"><defs><style>.cls-1{fill:#d21e8c;}.cls-2{fill:#fad413;}.cls-10,.cls-3,.cls-8{fill:#fff;}.cls-4{fill:#951c89;}.cls-5{fill:#360c37;}.cls-6{fill:#2f2a88;}.cls-7{fill:#501a82;}.cls-8{font-size:15.45px;font-family:Insignia, Insignia;}.cls-9{fill:#423d3e;}.cls-10{font-size:9.29px;font-family:Montserrat-Regular, Montserrat;}.cls-11{letter-spacing:-0.03em;}</style></defs><title>Asset 47</title><g id="Layer_2" data-name="Layer 2"><g id="buttons"><path class="cls-1" d="M152.27,32.27S134.14,14.19,90.17,14.4c-43.82-.76-62.1,17.88-62.1,17.88C11.69,57.51,13.45,174,14,214.69c1.72,129.88,5.85,218.64,15.25,276.13,2.24,13.69,9.38,11.34,9.38,11.34s27.56,2,51.55,1.24c24,.81,51.53-1.24,51.55-1.24s7.15,2.35,9.38-11.34c9.39-57.49,13.52-146.25,15.25-276.13C166.89,174,168.65,57.51,152.27,32.27Z"/><path class="cls-2" d="M30.85,29.21a9.18,9.18,0,0,1-.59-.81l-8.32,4.49-1.08,1.9s7.31,30.77,67.41,31.51h1.91v-6h-.36C56,60.27,30.85,29.21,30.85,29.21Z"/><path class="cls-3" d="M35.64,18.37c-9.58,2.06-6.8,7.88-5.39,10a9.18,9.18,0,0,0,.59.81S56,60.27,89.81,60.29h.36V11.22C74.7,10.7,57.22,13.73,35.64,18.37Z"/><path class="cls-2" d="M149.49,29.21a9.18,9.18,0,0,0,.59-.81l8.32,4.49,1.08,1.9s-7.31,30.77-67.41,31.51H90.17v-6h.36C124.32,60.27,149.49,29.21,149.49,29.21Z"/><path class="cls-3" d="M144.69,18.37c9.58,2.06,6.8,7.88,5.39,10a9.18,9.18,0,0,1-.59.81s-25.17,31.05-59,31.08h-.36V11.22C105.64,10.7,123.11,13.73,144.69,18.37Z"/><path class="cls-2" d="M167.46,406.81s-52.12-17.87-79.06-17.15c-56.72,1.5-73.22,14.85-73.22,14.85l1,11.08S49,399.73,93.79,406.81c30.41,4.81,63,21.37,66.48,27.38C166.45,444.93,167.46,406.81,167.46,406.81Z"/><path class="cls-4" d="M88.4,389.66c20.75-.55,56.44,9.92,71.74,14.77,3.31-50.15,5.18-112.71,6.2-189.74.49-36.93,2-136.45-10-173.3-5.9,9.08-22.07,24.39-64.25,24.92H88.25C46.08,65.78,29.9,50.47,24,41.39,12,78.24,13.5,177.75,14,214.69c1,75.64,2.82,137.33,6,187C28.28,397.71,48.27,390.72,88.4,389.66Z"/><path class="cls-5" d="M162.43,18.1S148.69.53,91,0H89.31C31.65.53,17.9,18.1,17.9,18.1-3.4,50.94-.1,178.77.6,231.67,2.85,400.64,9,440.43,21.26,515.23c2.91,17.81,21.54,39.6,68.05,40.68v0h.13l.73,0,.73,0H91v0c46.51-1.08,65.14-22.87,68.05-40.68,12.22-74.8,18.42-114.59,20.66-283.56C180.44,178.77,183.74,50.94,162.43,18.1Zm3.91,196.58c-1.72,129.88-5.85,218.64-15.25,276.13-2.24,13.69-9.38,11.34-9.38,11.34s-27.56,2-51.55,1.24c-24,.81-51.53-1.24-51.55-1.24s-7.15,2.35-9.38-11.34C19.84,433.32,15.71,344.57,14,214.69,13.45,174,11.69,57.51,28.06,32.27c0,0,18.29-18.64,62.1-17.88,44-.21,62.1,17.88,62.1,17.88C168.65,57.51,166.89,174,166.35,214.69Z"/><path class="cls-6" d="M61.54,458.1"/><path class="cls-7" d="M70.92,436"/><path class="cls-3" d="M48.92,438.67s0,0,0,.05l0-.08S48.89,438.68,48.92,438.67Z"/><path class="cls-3" d="M55.46,435.08c4.81.59,10.34.93,15.55,1.35,2.64.28,3.37.49,7,1.07,2.14.52,1.57.35,3.23.84l3.66,1.19c-.18.18-.54.17-.87.24a4.5,4.5,0,0,1-.89,0c-5-1-3.67-.83-8.23-1.76-6.46-1.56-10.1-1.23-16.66-2.25a23.41,23.41,0,0,0-3.15-.65C55.15,435.09,55.33,435.12,55.46,435.08Z"/><path class="cls-3" d="M73.4,446.29c.18.21.69.15,1,.24A1.19,1.19,0,0,0,75,447a30.67,30.67,0,0,1,2.13,3.33c.07.71.5,1.16.63,1.82-.1.21,0,.33-.1.53s-.31.31-.52.38c-.08-.09-.3.09-.45.1s-.61.07-.44-.24a1.39,1.39,0,0,1,0-1c-.13-.56-.32-1.18-.46-1.75a32.85,32.85,0,0,0-2.65-4.07C73.25,446.12,73.4,446.17,73.4,446.29Z"/><path class="cls-3" d="M38.23,449.54c3.56.38,10,1.14,13.28,1.76,1.84.63,4.09.72,5.9,1.41.56.38,1.47.68,1.55,1.27-.13.3-.3.35-.91.48a6.81,6.81,0,0,1-3.57-.84c-.52-.3-1.11-.4-1.46-.59-1.07-.36-1.56-.59-2.65-1-3.63-.82-10.08-2-14-2.59A5.94,5.94,0,0,1,38.23,449.54Z"/><path class="cls-3" d="M78.45,442.62c-5.88,2.55-3.37,1.55-9.24,4.61-1.19.91-7.07,5.61-8.68,6.5a8.37,8.37,0,0,1-2.29.64c-1.17.08-1.25.14-1.25-.16a14.47,14.47,0,0,1,4.32-3.39c2.73-1.73,2.63-1.9,5.72-3.64,2.05-.94,3.36-1.65,5.22-2.43s.75-.39,2.79-1.2c1-.41,1.95-.85,3-1.26s.51-.19,2.1-.88c.08,0,2.18-.41,2.4-.44"/><path class="cls-3" d="M52.48,437.26c-3.72,2.17-7.7,4.37-11.46,6.37-2.43,1.09-4.61,2.48-7.07,3.55a12.63,12.63,0,0,1-2.89.87c-.22-.1-.13-.21.29-.6a19.28,19.28,0,0,1,4.27-2.15c.82-.3,1.48-.66,2-.86,1.4-.63,2.12-.92,3.57-1.57,4.3-2.19,8.79-4.37,13-6.73A11.59,11.59,0,0,1,52.48,437.26Z"/><path class="cls-3" d="M47.73,470.58c-.64-3-.48-13.08.46-3.54.4,4.93,3.12,9.06,5.46,13.33,0,3.44-2.78-1.78-3.55-2.82A27.27,27.27,0,0,1,47.73,470.58Z"/><path class="cls-3" d="M47.83,449.28c2.55-6.4,4.39-7.86,6.13-7.81.93-.48,1.63.19,2.35,1.4-7,1.15-6.38,8-7,14-.05,4,1.59,16.53-1.29,3.52A41.79,41.79,0,0,1,47.83,449.28Z"/><path class="cls-3" d="M54.72,479.84c2.71-3.39-.09-6.65-1-9.38-.11-.15-1.31-2.47-2.19-3.63,0-2.47,4.36,5.48,5,6.66,1.42,2.44.63,4.59-.74,5.62C55.85,479,55.7,479.25,54.72,479.84Z"/><path class="cls-3" d="M61.84,459.41A51.9,51.9,0,0,1,68.18,456c1.05-.33,6.43-1.9,7.56-2.44a3.85,3.85,0,0,0,1.08-.95c.35-.56.42-.58.16-.66a12.14,12.14,0,0,0-3.89,1.17c-2.11.86-2.23.76-4.44,1.79-1.28.75-2.2,1.19-3.29,1.89s-.51.26-1.67,1c-.6.4-1.42.88-2,1.28s-.75.57-1.71,1.16c0,0-.87,1-.94,1.06"/><path class="cls-3" d="M66,464.12c0-1,.53-2.93,2.42-2.93,2.2,0,2.25,2.35,2.25,2.93Zm7,6.72a6.59,6.59,0,0,1-2.38.43c-3.56,0-4.59-3.61-4.59-6.15h7.2c0-1.68-.35-4.79-4.67-4.79-3.38,0-5.31,1.74-5.31,5.71,0,4.24,2.33,6.58,6.19,6.58a10.19,10.19,0,0,0,3.56-.68Z"/><path class="cls-3" d="M82.73,466.76c0,1.34-.23,4.51-2.66,4.51s-2.58-3-2.58-4.91c0-1.77.23-4.68,2.55-4.68s2.68,2.63,2.68,4Zm0,5.59h2.53V454.64l-4.43.63v.51c1.49.08,1.9.51,1.9,2.31v4.11h-.05a3.43,3.43,0,0,0-3.34-1.88c-3.34,0-4.63,3.17-4.63,6.39s1.24,5.91,4.53,5.91a4.81,4.81,0,0,0,3.49-1.68Z"/><path class="cls-3" d="M96.15,469.5H96.1a4.27,4.27,0,0,1-3.93,3.12c-3.39,0-3.39-3.27-3.39-5.14v-3.59c0-1.77-.41-2.2-1.95-2.25v-.52l4.48-.79v7.61c0,2.3.86,3,2.08,3,1.65,0,2.76-2.15,2.76-4.25v-2.78c0-1.77-.43-2.2-2-2.25v-.52l4.48-.79v12H96.15Z"/><path class="cls-3" d="M102.47,463.13c-.41-1.54-.66-1.9-2.3-2v-.52h4.13l2.23,8.76h.05l2.91-8.76h1.09l3.27,8.81h.05l1.87-8.81h1.32l-2.66,11.77h-1.95l-2.86-8.07h-.05l-2.78,8.07H104.9Z"/><path class="cls-3" d="M124.85,468.2c0,1.72-.89,3.07-2.36,3.07-.94,0-1.52-.81-1.52-2,0-2.41,3-2.53,3.88-2.56Zm0,4.16h2.53v-7.69c0-2.49-.56-4.34-4.15-4.34s-4.49,1.77-4.77,3.43h3c0-1.11.1-2.57,1.78-2.57s1.6,1.76,1.6,3.35v1.28c-1.62.05-6.67.33-6.67,3.9a3.18,3.18,0,0,0,3.39,2.9,4,4,0,0,0,3.27-1.76Z"/><path class="cls-3" d="M130.52,463.88c0-1.77-.41-2.2-2-2.25v-.52l4.53-.79v3.34h.05c.35-1.16,1.14-3.34,3.16-3.34a7.63,7.63,0,0,1,1.37.13v2.4a4.57,4.57,0,0,0-1.29-.3c-2.56,0-3.29,2-3.29,3.77v6h-2.53Z"/><path class="cls-3" d="M141.18,464.12c0-1,.53-2.93,2.42-2.93,2.2,0,2.25,2.35,2.25,2.93Zm7,6.72a6.59,6.59,0,0,1-2.38.43c-3.56,0-4.59-3.61-4.59-6.15h7.2c0-1.68-.35-4.79-4.67-4.79-3.38,0-5.31,1.74-5.31,5.71,0,4.24,2.33,6.58,6.19,6.58a10.18,10.18,0,0,0,3.56-.68Z"/><text class="cls-8" transform="translate(30.94 426.81)">by</text><path d="M158.64,101.85s1-16.39-14.3-17.62c0,0-21.51-.19-54.18,0-32.7-.17-54.18,0-54.18,0-15.28,1.23-14.3,17.62-14.3,17.62l-.15,73.3a16.08,16.08,0,0,0,9.29,13.78c6.24,2.95,8.12-.48,16.34,1.65C60.11,194,64,212.45,72.1,221.43,90.86,237.91,83,253.9,63.33,259.6c2.3,11.26-1.31,16.63-4.08,21.27-3.72,6.23-15.26,8.73-18.1,8.65-10.45,34.71-4.48,75.63,49,80.47l0-.09,0,.09c53.49-4.84,59.46-45.76,49-80.47-2.84.08-14.39-2.41-18.1-8.65-2.77-4.64-6.38-10-4.08-21.27-19.63-5.69-27.53-21.69-8.77-38.17,8.07-9,12-27.48,24.93-30.84,8.22-2.14,10.09,1.29,16.34-1.65a16.08,16.08,0,0,0,9.29-13.78Z"/><rect class="cls-9" x="22.05" y="76.01" width="35.39" height="13.96" rx="3.86" ry="3.86"/><text class="cls-10" transform="translate(27.11 85.76)">TRUE</text><rect class="cls-9" x="72.47" y="76.01" width="35.39" height="13.96" rx="3.86" ry="3.86"/><text class="cls-10" transform="translate(75.79 85.76)"><tspan class="cls-11">F</tspan><tspan x="5.08" y="0">ALSE</tspan></text></g></g></svg>